<svg xmlns="http://www.w3.org/2000/svg" width="53" height="41" viewBox="0 0 53 41" fill="none">
<path fill-rule="evenodd" clip-rule="evenodd" d="M22.8498 0.351562C15.6176 7.99862 13.0313 14.1476 13.0313 18.8331C16.4932 19.1802 19.3346 20.4094 21.5555 22.5208C23.7764 24.6321 24.8868 27.0761 24.8868 29.8526C24.8868 32.8028 23.7927 35.2901 21.6045 37.3147C19.4163 39.3393 16.6892 40.3516 13.4232 40.3516C9.76528 40.3516 6.61364 39.0356 3.96817 36.4036C1.32271 33.7716 0 30.5757 0 26.8158C0 15.5359 8.20588 4.11627 22.8498 0.351562Z" fill="#FF9339"/>
<path fill-rule="evenodd" clip-rule="evenodd" d="M49.986 0.351562C42.7539 7.99862 40.1675 14.1476 40.1675 18.8331C43.6295 19.1802 46.4709 20.4094 48.6917 22.5208C50.9126 24.6321 52.023 27.0761 52.023 29.8526C52.023 32.8028 50.9289 35.2901 48.7407 37.3147C46.5525 39.3393 43.8254 40.3516 40.5594 40.3516C36.9015 40.3516 33.7499 39.0356 31.1044 36.4036C28.4589 33.7716 27.1362 30.5757 27.1362 26.8158C27.1362 15.5359 35.3421 4.11627 49.986 0.351562Z" fill="#FF9339"/>
</svg>